<svg width="16" height="16" viewBox="0 0 12 12" fill="none" xmlns="http://www.w3.org/2000/svg">
<path fill-rule="evenodd" clip-rule="evenodd" d="M4 0.666667C4 0.298477 4.29848 0 4.66667 0H11.3333C11.7015 0 12 0.298477 12 0.666667V9.33333C12 10.8061 10.8061 12 9.33333 12C7.86057 12 6.66667 10.8061 6.66667 9.33333C6.66667 7.86057 7.86057 6.66667 9.33333 6.66667C9.81905 6.66667 10.2744 6.79653 10.6667 7.02342V4H5.33333V9.33333C5.33333 10.8061 4.13943 12 2.66667 12C1.19391 12 0 10.8061 0 9.33333C0 7.86057 1.19391 6.66667 2.66667 6.66667C3.15238 6.66667 3.60777 6.79653 4 7.02342V0.666667ZM5.33333 2.66667H10.6667V1.33333H5.33333V2.66667ZM4 9.33333C4 8.59695 3.40305 8 2.66667 8C1.93029 8 1.33333 8.59695 1.33333 9.33333C1.33333 10.0697 1.93029 10.6667 2.66667 10.6667C3.40305 10.6667 4 10.0697 4 9.33333ZM10.6667 9.33333C10.6667 8.59695 10.0697 8 9.33333 8C8.59695 8 8 8.59695 8 9.33333C8 10.0697 8.59695 10.6667 9.33333 10.6667C10.0697 10.6667 10.6667 10.0697 10.6667 9.33333Z" fill="#FAB005"/>
</svg>
