<svg preserveAspectRatio="none" width="100%" height="100%" overflow="visible" style="display: block;" viewBox="0 0 13.0001 13.0001" fill="none" xmlns="http://www.w3.org/2000/svg">
<path id="Vector" d="M7.08639 0.00378087C6.94827 -0.00826413 6.80915 0.00854489 6.67787 0.0531404C6.54659 0.097736 6.42602 0.169144 6.32381 0.262828C6.22161 0.356513 6.14 0.470428 6.08417 0.597339C6.02834 0.72425 5.99951 0.861383 5.99952 1.00003V3.54191C5.99779 3.77777 6.08022 4.00652 6.23201 4.18706C6.3838 4.3676 6.59499 4.4881 6.82764 4.52691C7.19937 4.58927 7.54591 4.75541 7.82731 5.00617C8.10871 5.25694 8.31353 5.58212 8.41814 5.94423C8.52276 6.30634 8.52292 6.69065 8.41861 7.05284C8.31429 7.41504 8.10975 7.74039 7.82856 7.99139C7.54736 8.24239 7.20096 8.40882 6.82929 8.47149C6.45762 8.53417 6.0758 8.49054 5.72784 8.34564C5.37989 8.20073 5.07996 7.96045 4.86264 7.65249C4.64531 7.34453 4.51944 6.98143 4.49952 6.60503C4.47389 6.09128 4.57889 5.66753 4.81202 5.33878C4.94903 5.14766 5.01363 4.91405 4.99428 4.67969C4.97493 4.44532 4.87289 4.22547 4.70639 4.05941L2.98014 2.29253C2.88175 2.19413 2.76389 2.11735 2.63412 2.0671C2.50436 2.01685 2.36553 1.99423 2.22652 2.0007C2.08751 2.00718 1.95139 2.04259 1.82685 2.10468C1.70231 2.16677 1.5921 2.25416 1.50327 2.36128C0.461378 3.61002 -0.0724485 5.20511 0.00791662 6.82943C0.0882817 8.45376 0.776952 9.98836 1.93702 11.1282C3.15001 12.3316 4.79083 13.0048 6.49952 13H6.59264C8.28298 12.9713 9.89602 12.2869 11.0914 11.0915C12.2867 9.89598 12.9709 8.28287 12.9995 6.59253C13.0464 3.19878 10.4489 0.305031 7.08639 0.00378087ZM2.26952 2.99628L3.99514 4.75816V4.76191C3.739 5.12949 3.57814 5.55493 3.52702 6.00003H1.02202C1.12215 4.89508 1.5574 3.84707 2.26952 2.99628ZM1.02264 7.00003H3.54139C3.64508 7.61437 3.93747 8.18119 4.37796 8.6218C4.81846 9.0624 5.3852 9.35493 5.99952 9.45878V11.9775C4.71892 11.8605 3.5198 11.2985 2.61057 10.3892C1.70133 9.47984 1.13947 8.28064 1.02264 7.00003ZM10.3833 10.3838C9.4776 11.2958 8.27952 11.8594 6.99952 11.9757V9.45878C7.57894 9.36234 8.1168 9.09635 8.54514 8.69441C8.95464 8.31288 9.24925 7.82441 9.39567 7.28422C9.54208 6.74402 9.53446 6.17363 9.37366 5.63754C9.21287 5.10145 8.90531 4.62103 8.48576 4.25058C8.06621 3.88014 7.5514 3.63445 6.99952 3.54128V1.00003C9.84452 1.25503 12.0414 3.70503 11.9995 6.57816C11.9799 8.0094 11.3996 9.37581 10.3833 10.3838Z" fill="#333CD3"/>
</svg>
