<svg preserveAspectRatio="none" width="100%" height="100%" overflow="visible" style="display: block;" viewBox="0 0 12.9928 12.9928" fill="none" xmlns="http://www.w3.org/2000/svg">
<path id="Vector" d="M12.9911 7.04295C12.8848 8.27793 12.4281 9.45689 11.6746 10.4411C10.9211 11.4253 9.90215 12.1739 8.73767 12.5987C7.57318 13.0235 6.3116 13.1069 5.10134 12.839C3.89108 12.5712 2.78249 11.9632 1.906 11.0868C1.02951 10.2103 0.421585 9.10168 0.153741 7.89142C-0.114103 6.68116 -0.0307206 5.41957 0.39408 4.25509C0.81888 3.09061 1.56742 2.07168 2.55165 1.31817C3.53587 0.564663 4.71483 0.107927 5.94981 0.00169872C6.01547 -0.00371831 6.08156 0.00385054 6.14429 0.0239732C6.20703 0.0440959 6.26519 0.0763783 6.31545 0.118977C6.36571 0.161576 6.40708 0.213657 6.43721 0.272247C6.46735 0.330837 6.48564 0.394788 6.49106 0.460449C6.49648 0.52611 6.48891 0.592195 6.46879 0.65493C6.44866 0.717666 6.41638 0.775824 6.37378 0.826084C6.33118 0.876344 6.2791 0.917721 6.22051 0.947853C6.16192 0.977985 6.09797 0.996282 6.03231 1.0017C4.98705 1.09151 3.98919 1.47799 3.15613 2.11568C2.32307 2.75336 1.68947 3.61572 1.32989 4.60128C0.970304 5.58684 0.899693 6.6546 1.12636 7.67893C1.35303 8.70326 1.86755 9.64154 2.60939 10.3834C3.35122 11.1252 4.2895 11.6397 5.31383 11.8664C6.33816 12.0931 7.40592 12.0225 8.39148 11.6629C9.37704 11.3033 10.2394 10.6697 10.8771 9.83663C11.5148 9.00357 11.9013 8.00571 11.9911 6.96045C12.002 6.82784 12.0652 6.70501 12.1667 6.61898C12.2682 6.53294 12.3997 6.49076 12.5323 6.5017C12.6649 6.51264 12.7877 6.57581 12.8738 6.67731C12.9598 6.77882 13.002 6.91034 12.9911 7.04295ZM5.99106 3.0017V6.5017C5.99106 6.63431 6.04374 6.76148 6.13751 6.85525C6.23128 6.94902 6.35845 7.0017 6.49106 7.0017H9.99106C10.1237 7.0017 10.2508 6.94902 10.3446 6.85525C10.4384 6.76148 10.4911 6.63431 10.4911 6.5017C10.4911 6.36909 10.4384 6.24191 10.3446 6.14815C10.2508 6.05438 10.1237 6.0017 9.99106 6.0017H6.99106V3.0017C6.99106 2.86909 6.93838 2.74191 6.84461 2.64815C6.75085 2.55438 6.62367 2.5017 6.49106 2.5017C6.35845 2.5017 6.23128 2.55438 6.13751 2.64815C6.04374 2.74191 5.99106 2.86909 5.99106 3.0017ZM8.49106 1.5017C8.6394 1.5017 8.7844 1.45771 8.90774 1.3753C9.03107 1.29289 9.1272 1.17576 9.18397 1.03871C9.24074 0.901667 9.25559 0.750867 9.22665 0.605381C9.19771 0.459895 9.12628 0.326258 9.02139 0.221369C8.9165 0.116479 8.78286 0.0450487 8.63738 0.0161098C8.49189 -0.0128291 8.34109 0.0020234 8.20405 0.0587891C8.067 0.115555 7.94987 0.211684 7.86746 0.335021C7.78505 0.458358 7.74106 0.603363 7.74106 0.751699C7.74106 0.950611 7.82008 1.14138 7.96073 1.28203C8.10138 1.42268 8.29215 1.5017 8.49106 1.5017ZM10.7411 3.0017C10.8894 3.0017 11.0344 2.95771 11.1577 2.8753C11.2811 2.79289 11.3772 2.67576 11.434 2.53871C11.4907 2.40167 11.5056 2.25087 11.4766 2.10538C11.4477 1.9599 11.3763 1.82626 11.2714 1.72137C11.1665 1.61648 11.0329 1.54505 10.8874 1.51611C10.7419 1.48717 10.5911 1.50202 10.454 1.55879C10.317 1.61555 10.1999 1.71168 10.1175 1.83502C10.035 1.95836 9.99106 2.10336 9.99106 2.2517C9.99106 2.45061 10.0701 2.64138 10.2107 2.78203C10.3514 2.92268 10.5421 3.0017 10.7411 3.0017ZM12.2411 5.2517C12.3894 5.2517 12.5344 5.20771 12.6577 5.1253C12.7811 5.04289 12.8772 4.92576 12.934 4.78871C12.9907 4.65167 13.0056 4.50087 12.9766 4.35538C12.9477 4.20989 12.8763 4.07626 12.7714 3.97137C12.6665 3.86648 12.5329 3.79505 12.3874 3.76611C12.2419 3.73717 12.0911 3.75202 11.954 3.80879C11.817 3.86555 11.6999 3.96168 11.6175 4.08502C11.535 4.20836 11.4911 4.35336 11.4911 4.5017C11.4911 4.70061 11.5701 4.89138 11.7107 5.03203C11.8514 5.17268 12.0421 5.2517 12.2411 5.2517Z" fill="#A0ADB4"/>
</svg>
